<svg width="16" height="16" viewBox="0 0 16 16" fill="none" xmlns="http://www.w3.org/2000/svg">
<path fill-rule="evenodd" clip-rule="evenodd" d="M2.66699 5.33331C2.2988 5.33331 2.00033 5.63179 2.00033 5.99998V12.6666C2.00033 13.0348 2.2988 13.3333 2.66699 13.3333H13.3337C13.7018 13.3333 14.0003 13.0348 14.0003 12.6666V5.99998C14.0003 5.63179 13.7018 5.33331 13.3337 5.33331H2.66699ZM0.666992 5.99998C0.666992 4.89541 1.56242 3.99998 2.66699 3.99998H13.3337C14.4382 3.99998 15.3337 4.89541 15.3337 5.99998V12.6666C15.3337 13.7712 14.4382 14.6666 13.3337 14.6666H2.66699C1.56242 14.6666 0.666992 13.7712 0.666992 12.6666V5.99998Z" fill="#575A89"/>
<path fill-rule="evenodd" clip-rule="evenodd" d="M5.25278 1.9191C5.62785 1.54403 6.13656 1.33331 6.66699 1.33331H9.33366C9.86409 1.33331 10.3728 1.54403 10.7479 1.9191C11.1229 2.29417 11.3337 2.80288 11.3337 3.33331V14C11.3337 14.3682 11.0352 14.6666 10.667 14.6666C10.2988 14.6666 10.0003 14.3682 10.0003 14V3.33331C10.0003 3.1565 9.93009 2.98693 9.80506 2.86191C9.68004 2.73688 9.51047 2.66665 9.33366 2.66665H6.66699C6.49018 2.66665 6.32061 2.73688 6.19559 2.86191C6.07056 2.98693 6.00033 3.1565 6.00033 3.33331V14C6.00033 14.3682 5.70185 14.6666 5.33366 14.6666C4.96547 14.6666 4.66699 14.3682 4.66699 14V3.33331C4.66699 2.80288 4.87771 2.29417 5.25278 1.9191Z" fill="#575A89"/>
</svg>
