<svg width="16" height="16" viewBox="0 0 16 16" fill="none" xmlns="http://www.w3.org/2000/svg">
<path fill-rule="evenodd" clip-rule="evenodd" d="M12.667 13.3334C12.8438 13.3334 13.0134 13.2631 13.1384 13.1381C13.2634 13.0131 13.3337 12.8435 13.3337 12.6667L13.3337 3.33335C13.3337 3.15654 13.2634 2.98697 13.1384 2.86195C13.0134 2.73692 12.8438 2.66669 12.667 2.66669H10.0003C9.63214 2.66669 9.33366 2.36821 9.33366 2.00002C9.33366 1.63183 9.63214 1.33335 10.0003 1.33335H12.667C13.1974 1.33335 13.7061 1.54407 14.0812 1.91914C14.4563 2.29421 14.667 2.80292 14.667 3.33335L14.667 12.6667C14.667 13.1971 14.4563 13.7058 14.0812 14.0809C13.7061 14.456 13.1974 14.6667 12.667 14.6667H10.0003C9.63214 14.6667 9.33366 14.3682 9.33366 14C9.33366 13.6318 9.63214 13.3334 10.0003 13.3334H12.667Z" fill="#575A89"/>
<path fill-rule="evenodd" clip-rule="evenodd" d="M5.80474 11.8047C5.54439 12.0651 5.12228 12.0651 4.86193 11.8047L1.5286 8.4714C1.26825 8.21106 1.26825 7.78894 1.5286 7.5286L4.86193 4.19526C5.12228 3.93491 5.54439 3.93491 5.80474 4.19526C6.06509 4.45561 6.06509 4.87772 5.80474 5.13807L2.94281 8L5.80474 10.8619C6.06509 11.1223 6.06509 11.5444 5.80474 11.8047Z" fill="#575A89"/>
<path fill-rule="evenodd" clip-rule="evenodd" d="M10.667 8.00002C10.667 8.36821 10.3685 8.66669 10.0003 8.66669L2.00033 8.66669C1.63214 8.66669 1.33366 8.36821 1.33366 8.00002C1.33366 7.63183 1.63214 7.33335 2.00033 7.33335L10.0003 7.33335C10.3685 7.33335 10.667 7.63183 10.667 8.00002Z" fill="#575A89"/>
</svg>
