<svg width="16" height="16" viewBox="0 0 16 16" fill="none" xmlns="http://www.w3.org/2000/svg">
<path fill-rule="evenodd" clip-rule="evenodd" d="M3.46634 0.933354C3.59224 0.765483 3.78984 0.666687 3.99967 0.666687H11.9997C12.2095 0.666687 12.4071 0.765483 12.533 0.933354L14.533 3.60002C14.6196 3.71542 14.6663 3.85577 14.6663 4.00002V13.3334C14.6663 13.8638 14.4556 14.3725 14.0806 14.7476C13.7055 15.1226 13.1968 15.3334 12.6663 15.3334H3.33301C2.80257 15.3334 2.29387 15.1226 1.91879 14.7476C1.54372 14.3725 1.33301 13.8638 1.33301 13.3334V4.00002C1.33301 3.85577 1.37979 3.71542 1.46634 3.60002L3.46634 0.933354ZM4.33301 2.00002L2.66634 4.22224V13.3334C2.66634 13.5102 2.73658 13.6797 2.8616 13.8048C2.98663 13.9298 3.1562 14 3.33301 14H12.6663C12.8432 14 13.0127 13.9298 13.1377 13.8048C13.2628 13.6797 13.333 13.5102 13.333 13.3334V4.22224L11.6663 2.00002H4.33301Z" fill="black"/>
<path fill-rule="evenodd" clip-rule="evenodd" d="M1.33301 4.00002C1.33301 3.63183 1.63148 3.33335 1.99967 3.33335H13.9997C14.3679 3.33335 14.6663 3.63183 14.6663 4.00002C14.6663 4.36821 14.3679 4.66669 13.9997 4.66669H1.99967C1.63148 4.66669 1.33301 4.36821 1.33301 4.00002Z" fill="black"/>
<path fill-rule="evenodd" clip-rule="evenodd" d="M5.33301 6.00002C5.7012 6.00002 5.99967 6.2985 5.99967 6.66669C5.99967 7.19712 6.21039 7.70583 6.58546 8.0809C6.96053 8.45597 7.46924 8.66669 7.99967 8.66669C8.53011 8.66669 9.03882 8.45597 9.41389 8.0809C9.78896 7.70583 9.99967 7.19712 9.99967 6.66669C9.99967 6.2985 10.2982 6.00002 10.6663 6.00002C11.0345 6.00002 11.333 6.2985 11.333 6.66669C11.333 7.55074 10.9818 8.39859 10.3567 9.02371C9.73158 9.64883 8.88373 10 7.99967 10C7.11562 10 6.26777 9.64883 5.64265 9.02371C5.01753 8.39859 4.66634 7.55074 4.66634 6.66669C4.66634 6.2985 4.96482 6.00002 5.33301 6.00002Z" fill="black"/>
</svg>
