<svg width="16" height="16" viewBox="0 0 16 16" fill="none" xmlns="http://www.w3.org/2000/svg">
<path fill-rule="evenodd" clip-rule="evenodd" d="M3.33301 2.66668C2.96482 2.66668 2.66634 2.96515 2.66634 3.33334V12.6667C2.66634 13.0349 2.96482 13.3333 3.33301 13.3333H12.6663C13.0345 13.3333 13.333 13.0349 13.333 12.6667V3.33334C13.333 2.96515 13.0345 2.66668 12.6663 2.66668H3.33301ZM1.33301 3.33334C1.33301 2.22877 2.22844 1.33334 3.33301 1.33334H12.6663C13.7709 1.33334 14.6663 2.22877 14.6663 3.33334V12.6667C14.6663 13.7712 13.7709 14.6667 12.6663 14.6667H3.33301C2.22844 14.6667 1.33301 13.7712 1.33301 12.6667V3.33334Z" fill="#575A89"/>
<path fill-rule="evenodd" clip-rule="evenodd" d="M5.99967 1.33334C6.36786 1.33334 6.66634 1.63182 6.66634 2.00001V14C6.66634 14.3682 6.36786 14.6667 5.99967 14.6667C5.63148 14.6667 5.33301 14.3682 5.33301 14V2.00001C5.33301 1.63182 5.63148 1.33334 5.99967 1.33334Z" fill="#575A89"/>
</svg>
