<svg width="16" height="16" viewBox="0 0 16 16" fill="none" xmlns="http://www.w3.org/2000/svg">
<path fill-rule="evenodd" clip-rule="evenodd" d="M5.33333 4.00002C3.12419 4.00002 1.33333 5.79088 1.33333 8.00002C1.33333 10.2092 3.12419 12 5.33333 12H10.6667C12.8758 12 14.6667 10.2092 14.6667 8.00002C14.6667 5.79088 12.8758 4.00002 10.6667 4.00002H5.33333ZM0 8.00002C0 5.0545 2.38781 2.66669 5.33333 2.66669H10.6667C13.6122 2.66669 16 5.0545 16 8.00002C16 10.9455 13.6122 13.3334 10.6667 13.3334H5.33333C2.38781 13.3334 0 10.9455 0 8.00002Z" fill="#575A89"/>
<path fill-rule="evenodd" clip-rule="evenodd" d="M5.33366 6.66665C4.59728 6.66665 4.00033 7.2636 4.00033 7.99998C4.00033 8.73636 4.59728 9.33331 5.33366 9.33331C6.07004 9.33331 6.66699 8.73636 6.66699 7.99998C6.66699 7.2636 6.07004 6.66665 5.33366 6.66665ZM2.66699 7.99998C2.66699 6.52722 3.8609 5.33331 5.33366 5.33331C6.80642 5.33331 8.00033 6.52722 8.00033 7.99998C8.00033 9.47274 6.80642 10.6666 5.33366 10.6666C3.8609 10.6666 2.66699 9.47274 2.66699 7.99998Z" fill="#575A89"/>
</svg>
