<svg width="20" height="20" viewBox="0 0 20 20" fill="none" xmlns="http://www.w3.org/2000/svg">
<path d="M14.3872 10.55C14.6039 10.7667 14.7206 11.0667 14.7206 11.3833C14.7206 11.6833 14.6039 11.9833 14.3872 12.2C14.1706 12.4166 13.8706 12.55 13.5539 12.55C13.2539 12.55 12.9539 12.4166 12.7206 12.2C12.5039 11.9833 12.3872 11.6833 12.3872 11.3833C12.3872 11.0667 12.5206 10.7833 12.7206 10.55C12.9372 10.3333 13.2372 10.2167 13.5539 10.2167C13.8706 10.2167 14.1706 10.3333 14.3872 10.55ZM17.5039 7.94997V15.3166C17.5039 16.0666 16.9039 16.6666 16.1539 16.6666H4.08724C3.20391 16.6666 2.50391 15.95 2.50391 15.0833V9.08331V7.68333V5.33331C2.50391 4.23331 3.40391 3.33331 4.50391 3.33331H13.7206C14.6372 3.33331 15.3372 4.08331 15.3372 4.99998V5.99998H15.6372C16.6706 5.99998 17.5039 6.91664 17.5039 7.94997ZM3.73724 5.33331C3.73724 5.69998 4.03724 5.99998 4.40391 5.99998H14.0039V4.96665C14.0039 4.79999 13.8706 4.66665 13.7039 4.66665H4.40391C4.03724 4.66665 3.73724 4.96665 3.73724 5.33331ZM16.1706 7.94997C16.1706 7.66664 15.9372 7.33331 15.6372 7.33331H4.1039C3.9539 7.33331 3.83724 7.53333 3.83724 7.68333V9.08331V15.0833C3.83724 15.2166 3.95391 15.3333 4.08724 15.3333H16.1539C16.1706 15.3333 16.1706 15.3166 16.1706 15.3166V7.94997Z" fill="#575A89"/>
</svg>
