<svg width="20" height="20" viewBox="0 0 20 20" fill="none" xmlns="http://www.w3.org/2000/svg">
<g clip-path="url(#clip0)">
<path d="M16.666 19.0833C16.5827 19.0833 16.4993 19.0833 16.416 19.0833C13.7493 18.75 11.0827 17.8333 8.83268 16.4167C6.74935 15.0833 4.91602 13.25 3.58268 11.1667C2.08268 8.91666 1.16602 6.24999 0.916016 3.58332C0.916016 2.91666 1.08268 2.24999 1.49935 1.74999C1.91602 1.24999 2.49935 0.916656 3.16602 0.833323C3.24935 0.833323 3.33268 0.833323 3.41602 0.833323H5.91602C7.16602 0.833323 8.24935 1.74999 8.41602 2.99999C8.49935 3.74999 8.66602 4.49999 8.91602 5.16666C9.24935 6.08332 8.99935 7.08332 8.33268 7.83332L7.74935 8.41666C8.74935 9.91666 9.99935 11.25 11.5827 12.25L12.166 11.6667C12.8327 11 13.916 10.75 14.8327 11.0833C15.4993 11.3333 16.2493 11.5 16.9993 11.5833C18.2493 11.75 19.166 12.8333 19.166 14.0833V16.5833C19.166 17.25 18.916 17.9167 18.416 18.3333C17.916 18.75 17.3327 19.0833 16.666 19.0833ZM5.91602 2.49999H3.41602C3.16602 2.49999 2.91602 2.66666 2.74935 2.83332C2.66602 2.99999 2.58268 3.16666 2.58268 3.41666C2.83268 5.83332 3.66602 8.16666 4.99935 10.25C6.24935 12.1667 7.83268 13.8333 9.74935 15C11.8327 16.3333 14.166 17.1667 16.5827 17.4167C16.916 17.4167 17.0827 17.3333 17.2493 17.1667C17.416 17 17.4993 16.8333 17.4993 16.5833V14.0833C17.4993 13.6667 17.166 13.3333 16.7493 13.25C15.916 13.1667 15.0827 12.9167 14.2493 12.5833C13.916 12.5 13.5827 12.5 13.3327 12.75L12.2493 13.8333C11.9993 14.0833 11.5827 14.1667 11.2493 14C8.99935 12.75 7.16602 10.9167 5.91602 8.66666C5.83268 8.33332 5.91602 7.91666 6.16602 7.66666L7.24935 6.58332C7.41602 6.41666 7.49935 5.99999 7.41602 5.74999C7.08268 4.91666 6.91602 4.08332 6.74935 3.24999C6.74935 2.83332 6.33268 2.49999 5.91602 2.49999ZM15.8327 8.33332C15.416 8.33332 15.0827 8.08332 14.9993 7.66666C14.7493 6.33332 13.666 5.33332 12.3327 4.99999C11.916 4.91666 11.5827 4.49999 11.666 3.99999C11.7493 3.58332 12.166 3.24999 12.666 3.33332C14.666 3.74999 16.2493 5.24999 16.5827 7.24999C16.666 7.66666 16.416 8.16666 15.916 8.24999C15.916 8.24999 15.916 8.33332 15.8327 8.33332ZM19.166 8.24999C18.7493 8.24999 18.416 7.91666 18.3327 7.49999C17.9993 4.41666 15.5827 1.99999 12.416 1.58332C11.9993 1.49999 11.666 1.08332 11.666 0.666656C11.666 0.24999 12.166 -0.0833435 12.5827 -0.0833435C16.4993 0.333323 19.4993 3.33332 19.916 7.24999C19.9993 7.66666 19.666 8.08332 19.166 8.16666C19.2493 8.24999 19.166 8.24999 19.166 8.24999Z" fill="black"/>
</g>
<defs>
<clipPath id="clip0">
<path d="M0 0H20V20H0V0Z" fill="white"/>
</clipPath>
</defs>
</svg>
